<svg xmlns="http://www.w3.org/2000/svg" viewBox="0 0 100 125" x="0px" y="0px"><path d="m83.94,76.56c-.03-.18-.19-.31-.37-.31h0l-2.01.02-4.12-1.14-2.88-2.41c.49-7.46.65-18.97-.48-27.15,0-.04.01-.09,0-.13l-.28-2.02c-.26-1.87-1.02-3.63-2.2-5.1-.36-.45-.77-.96-1.21-1.53-2.44-3.1-6.12-7.78-9.53-10.37-4.47-3.4-8.7-5.31-12.55-5.69-2.22-.22-4.86-.09-6.24,0,0,0,0,0-.01,0,0,0-.01,0-.02,0-7.99,1.26-13.61,2.88-17.17,4.97-.05.03-.44.25-.95.61-.19.11-1.33.83-2.22,2.02-.59.73-1.03,1.58-1.06,2.49,0,0,0,.01,0,.02-.47,3.95,1.34,14.8,1.66,16.69-2.59.2-4.69,2.18-5.08,4.71h0c-2.41,5.74.62,7.36,3.53,7.73-.25,2.7-.46,7.54.08,14.66-.43,1.44-.28,2.65.43,3.42.53.57,1.6,1.15,3.68.67.44-.1.91-.19,1.35-.11.39.07.59.15.77.22.24.1.46.18.89.18h.03l3.64-.03c.49,0,.88-.16,1.14-.46.42-.47.35-1.11.34-1.18l-.03-.26-4.34-.96-3.99-1.72c.03-1.32.23-2.96.47-4.84.31-2.48.67-5.45.73-8.57.47.28,1.01.44,1.6.44,1.76,0,3.19-1.43,3.19-3.19,0-.73-.25-1.4-.66-1.94l.03-5.11c0-1.39-.73-2.6-1.83-3.29l.98-5.01c.43-.37.97-.87,1.56-1.5.1-.11.21-.22.31-.33.02-.03.05-.06.07-.09.85-.94,1.62-2,2.32-3.15.02-.04.05-.08.07-.12.22-.37.44-.76.64-1.15.05-.1.1-.19.15-.29.24-.47.46-.94.67-1.43,0,0,0-.01,0-.02.66-1.55,1.52-2.51,2.54-2.85.48-.16.94-.15,1.31-.1.42.07.73.2.86.27.01,0,.03.02.03.02,0,0,0,0,0,0,0,0,.02.01.03.01l2.85,1.35c3.98,4.35,8.79,3.42,9.66,3.2.99.42,8.33,3.67,13.21,10.09-.56,3.25-.55,6.09.03,8.4.17,1.27.39,2.62.63,4.04.68,4.1,1.45,8.75,1.22,13.44-.18.6-.68,2.4-.75,3.57-.06.93.23,1.79.77,2.36.48.51,1.15.78,1.94.78h.03c.91,0,1.24-.16,1.58-.35.21-.12.39-.23,1.07-.23.78,0,1.9.13,2.97.26,1.06.13,2.07.25,2.8.25,1.41-.01,2.58.08,2.59.08.03,0,.06,0,.1,0,0,0,.6-.11,1.58-.12.61,0,1.08-.21,1.41-.61.65-.79.44-2.04.43-2.1Zm-48.61-43.78s.05-.06.08-.09c-.03.03-.05.06-.08.1,0,0,0,0,0,0Zm-13.93,2.23c.67.4,1.74,1.34,1.71,3.27-.01,1,.07,1.9.23,2.68l-.66,4.37c-.41-2.6-1.03-6.88-1.28-10.33Zm-1.62,21.67l-1.87-3.22c0-.12-.03-.23-.03-.35,0-2.5,1.91-4.54,4.35-4.79l-.96,6.32c-.97,1-1.49,2.04-1.49,2.04Zm6.14-.73l-.03.17c-.04.21-.1.41-.15.62,0,0-.01.01-.02.02h.01c-.14.56-.31,1.1-.54,1.61l-.04.08v.09c.17,3.95-.31,7.82-.7,10.93-.25,2.02-.47,3.77-.48,5.17v.25l4.51,1.94,3.84.86c-.02.11-.06.24-.15.34-.12.13-.32.2-.58.21l-3.64.03c-.32,0-.43-.05-.64-.13-.21-.08-.46-.18-.92-.26-.16-.03-.33-.04-.49-.04-.4,0-.79.07-1.16.16-1.35.31-2.4.15-2.96-.45-.53-.58-.62-1.56-.24-2.76l.02-.07v-.07c-.75-9.85-.06-15.31.17-16.84-.05-.6.03-1.51.22-2.65l2.53-16.66c.11-.66.48-1.22,1.03-1.59.56-.37,1.22-.48,1.87-.33,1.25.3,2.03,1.63,1.73,2.97l-3.2,16.39Zm14.24-24.45s-.84-.47-1.92-.41l-.57-8.8c1.29-.26,2.63-.51,4.07-.74l.72,11.04-2.31-1.09Zm42.77,46.69c-.19.22-.46.33-.84.34-.9,0-1.49.09-1.66.12-.24-.02-1.31-.09-2.61-.08-.67,0-1.66-.11-2.7-.24-1.09-.13-2.21-.25-3.06-.27-.81,0-1.12.15-1.44.34-.22.13-.42.25-1.21.25-.59,0-1.08-.18-1.42-.54-.4-.42-.61-1.08-.57-1.8.05-.93.42-2.35.63-3.1h5.9l3.07,2.57s.09.06.14.07l4.25,1.18s.07.01.1.01l1.72-.02c.01.33-.02.84-.3,1.17Z"/><text x="0" y="115" fill="#000000" font-size="5px" font-weight="bold" font-family="'Helvetica Neue', Helvetica, Arial-Unicode, Arial, Sans-serif">Created by Pris</text><text x="0" y="120" fill="#000000" font-size="5px" font-weight="bold" font-family="'Helvetica Neue', Helvetica, Arial-Unicode, Arial, Sans-serif">from the Noun Project</text></svg>