<svg xmlns="http://www.w3.org/2000/svg" viewBox="0 0 100 125" x="0px" y="0px"><path d="m17.49,68.22c3.13,2.36,17.02,7.98,27.16,7.98,5.14,0,7.73-.32,12.07-1.51,2.16-.59,4.56-1.61,6.18-2.36,0,0,0,0,.01-.01,0,0,0,0,.01,0,5.23-2.99,12.43-11.72,14.36-15.84.12-.25.22-.49.3-.72.28-.26,1.24-1.22,1.86-2.47.48-.98.76-2.13.34-3.29-.06-.16-.12-.34-.2-.54,0-.02-.02-.05-.03-.08-.22-.58-.5-1.31-.81-2.14-.07-.17-.13-.35-.2-.53l-.07-.19s0,0,0,0c-.77-2.02-1.65-4.35-2.26-6.16-.06-.19.16-1.35,1.86-4.07,2.24-.82,3.9-2.82,4.25-5.25l.06.1c4.88-11.63-8.99-9.06-8.99-9.06v.02c-.81-1.38-2.46-2.21-4.25-1.77-1.33.33-2.39,1.41-2.72,2.73-.3,1.23,0,2.39.67,3.25l-.03,6.08c0,2.11,1.42,3.89,3.35,4.45-.59.63-1.17,1.26-1.69,1.82-.24.26-.48.55-.71.84-.07.09-.14.2-.21.29-.13.18-.27.35-.39.54h0s-.02.02-.02.04l-16.21,1.68c-4.24-1.18-8.84-1.78-12.53-2.26-2.2-.29-4.09-.53-5.47-.84-.02,0-.05,0-.08,0-.21-.06-.55-.37-.88-.66-.31-.28-.67-.58-1.07-.86.05-.14.09-.28.14-.42.86-.24,1.92-.76,2.45-1.86.54-1.11.42-2.55-.37-4.3-.34-.77-.07-1.39.3-2.25.37-.86.83-1.93.71-3.43-.08-1.01-.22-1.71-.29-2.04.72-.8,1.03-1.58.91-2.32-.17-1.04-1.15-1.6-1.34-1.7-.07-.04-.16-.05-.23-.04-.12.02-.22.09-.28.2-.83,1.56-1.53,2.67-2.22,3.75-1.61,2.53-3,4.72-5.32,11.63l-.24.6c-.34.01-.66.15-.88.44-.19.25-.27.55-.23.85-.29.07-.55.25-.71.51-.17.27-.21.59-.14.89-.23.11-.43.29-.54.53-.14.29-.14.61-.03.89-.18.12-.32.29-.39.5-.1.29-.07.6.08.87.1.17.25.29.43.38-3.01,7.28-6.17,15.76-6.39,24.65-.01.45-.04,1.81.92,2.48Zm40.01-8.3c-5.66-2.85-10.13.01-10.81.49-1.2.14-13.41,1.56-20.18,0,.91-1.77,1.93-4.15,2.15-6.21.33-1.84.46-3.73.61-5.73.13-1.75.26-3.52.52-5.34.92,0,1.66-.13,2.16-.27,10.95,3.48,15.94,4.67,16.83,4.88l.15.03s.04,0,.06,0c.41.08.92.12,1.54.12.41,0,.87-.02,1.37-.05l12.73-.78s0,.02,0,.04c-.05.22-.1.44-.14.66,0,.04-.01.08-.02.11-.22,1.18-.36,2.4-.41,3.66-.01.31-.04.62-.07.92-.01.1-.03.19-.04.29-.03.2-.05.4-.09.59-.02.11-.04.21-.06.32-.04.17-.07.35-.11.52-.03.11-.05.22-.08.32-.04.16-.09.32-.13.48-.03.1-.06.2-.1.3-.05.15-.1.3-.16.45-.03.09-.07.19-.1.28-.06.15-.12.29-.18.43-.04.08-.07.17-.11.25-.07.15-.13.29-.2.43-.03.06-.06.13-.09.19-.09.18-.18.36-.27.52,0,.02-.02.03-.03.05-.1.18-.2.36-.3.52-.03.04-.05.08-.08.12-.07.12-.14.23-.21.33-.04.05-.07.1-.1.15-.06.08-.11.17-.17.25-.04.05-.07.1-.1.14-.05.07-.1.13-.14.19-.03.04-.06.09-.1.12-.04.05-.08.1-.11.15-.03.04-.06.07-.09.11-.03.04-.06.07-.08.1-.02.03-.05.06-.07.09,0,0,0,0,0,.01l-3.16-.25Zm-5.12,15c-.06.01-.12.02-.18.03.06-.01.12-.02.18-.03Zm-26.71-38.87l1.12.8c.07.05.12.12.13.2.01.08,0,.16-.05.23-.09.12-.25.16-.38.09l-.21-.1c-.18-.09-.4-.01-.5.17-.09.18-.02.4.15.5l.19.1c.07.04.12.1.14.18s.01.16-.03.23c-.07.13-.24.19-.37.13l-.22-.08c-.18-.06-.38.01-.46.18-.09.17-.03.38.12.48.09.06.16.19.1.32-.05.12-.19.19-.32.15l-.27-.07s-.06-.01-.09-.01c-.16,0-.31.11-.36.27-.06.19.05.4.24.46.1.03.15.13.12.23-.03.09-.11.14-.21.12l-1.15-.16c-.1-.02-.16-.09-.19-.13-.02-.04-.06-.13-.02-.24,0,0,0,0,0,0,.05-.13.17-.18.28-.17.17,0,.32-.09.37-.25.06-.16,0-.33-.13-.43-.13-.09-.22-.27-.13-.47.07-.14.22-.22.39-.2.17.02.31-.06.38-.21.07-.14.04-.32-.07-.43-.14-.14-.16-.35-.06-.51.11-.18.33-.24.52-.15.17.07.36.02.46-.13.1-.15.08-.35-.04-.48-.13-.13-.19-.36-.05-.54.14-.18.39-.22.57-.09Zm5.37.26l-4.59-1.76c2.22-6.56,3.57-8.69,5.13-11.13.64-1,1.29-2.04,2.05-3.44.25.19.57.52.64.96.09.54-.2,1.15-.85,1.83-.09.09-.13.23-.09.36,0,.03.21.8.32,2.12.11,1.31-.29,2.24-.65,3.07-.39.92-.77,1.79-.3,2.85.69,1.54.82,2.77.38,3.67-.43.88-1.33,1.29-2.05,1.49Zm20.4,6.49l17.67-1.83c1.46-.17,2.8.8,2.98,2.16.1.71-.1,1.41-.55,1.96-.45.55-1.09.88-1.81.93l-17.87,1.09c-1.23.08-2.16.06-2.76-.06-.02,0-.03,0-.05,0l-.07-.02c-.92-.21-5.91-1.4-16.91-4.9-.07-.02-.15-.03-.22,0-.42.13-1.09.26-1.94.27.23-1.38.54-2.79,1-4.22.3.22.58.46.83.68.45.4.8.72,1.18.83.03.01.07.02.1.02,1.42.31,3.34.56,5.55.85,3.67.48,8.23,1.07,12.44,2.27.04.01.09.02.13.01l.08-.39.03.37.18-.02Zm27.89-16.92h0s0,0,0,0Zm-3.5,10.08c-1.69,0-3.2-.72-4.27-1.87-.04-.07-.07-.13-.12-.2-.54-.74-.9-2.05-.9-2.74,0-1.05.85-1.9,1.9-1.9.76,0,1.42.45,1.72,1.1t0,0h0c3.33-.71,5.17-4.46,5.17-4.46l2.32,3.99c0,.09.01.17.01.26,0,3.22-2.62,5.83-5.83,5.83Zm1.75,10.29c-.81-.12-2.31-.62-3.05-2.63-1.16-3.15-2.75-4.88-4.65-5.07.85-.92,1.78-1.9,2.6-2.77.98.59,2.13.93,3.35.93.41,0,.81-.04,1.2-.12-.83,1.4-1.77,3.24-1.51,4.01.55,1.66,1.34,3.75,2.06,5.64Zm-14.66,25.21l-4.91-10.74,2.71.22,9.22,4.27s.02,0,.03,0c-2.33,2.55-4.87,4.9-7.06,6.24Z"/><text x="0" y="115" fill="#000000" font-size="5px" font-weight="bold" font-family="'Helvetica Neue', Helvetica, Arial-Unicode, Arial, Sans-serif">Created by Pris</text><text x="0" y="120" fill="#000000" font-size="5px" font-weight="bold" font-family="'Helvetica Neue', Helvetica, Arial-Unicode, Arial, Sans-serif">from the Noun Project</text></svg>