<svg xmlns="http://www.w3.org/2000/svg" viewBox="0 0 100 125" x="0px" y="0px"><path d="m74.89,54.27c.04-4.21-.51-7.88-1.37-9.78-.24-.52-.47-1.02-.71-1.5,0,0,0,0,0-.01-.12-.23-.23-.43-.34-.65-.09-.18-.18-.36-.28-.53,0,0,0,0,0,0-.69-1.25-1.38-2.32-2.21-3.59l-.75-1.17c-.26-.4-.51-.81-.76-1.22-.62-1.01-1.26-2.05-2.02-3-.85-1.06-1.89-1.74-2.89-2.25,0,0,0,0,0,0-.24-.12-.48-.24-.72-.35l-.14-.06c-.1-.04-.36-.15-.49-.22-.41-1.52-1.13-2.56-2.16-3.09-1.17-.61-2.74-.55-4.65.18-1.28.49-2.43.98-3.53,1.47-.6.14-1.21.23-1.94.27-1.83.09-2.73-.34-4.59-1.32-.45-.24-1.17-.66-1.41-.87.22-1.36.02-2.74-.6-3.99-.65-1.3-1.69-2.33-2.97-2.97l.12-.02c-9.54-8.4-11.55,5.68-11.55,5.68h.02c-1.58.34-2.9,1.65-3.05,3.5-.11,1.37.57,2.74,1.74,3.47,1.08.68,2.28.76,3.32.41l5.8,1.98c2.13.72,4.05-.05,5.05-1.87.02,0,.04,0,.06-.01.31.73.53,1.75.4,2.87-.13.24-.23.48-.28.72,0,0-.04.61-.37,1.85-.03.12-.07.26-.12.41-.31,1.09-.84,2.9-.46,4.97.27,1.48.09,2.83-.07,4.02-.08.57-.15,1.11-.16,1.6-.04,1.41-.17,1.96-.89,4.44-.11.38-.21.73-.32,1.06-.57,1.9-1.03,3.4-1.32,6.45-.37,3.83-1.07,6.43-1.93,7.14-.57.47-.96.95-1.27,1.34-.29.36-.52.64-.77.79-1.06.62-.97,2.01-.78,3.14.16.95.18,1.82.09,2.47-.2.28-.37.5-.55.67-.58.57-1.36.91-2.19,1.26-.59.26-1.21.52-1.75.88-.57.38-1.13.79-1.69,1.24-1.72.05-2.31.99-2.31,1.43,0,.37.28.73.3.74.23.4.7.46,1.02.41.43.21.88.13,1.19,0,.28.16.62.21.92.21.45,0,.82-.11.85-.12.02,0,1.97-.14,4-.19,1.53-.04,3.31-.19,5.2-.35.67-.06,1.36-.12,2.04-.17.26-.02.55-.03.85-.03,1.96-.03,4.74.24,7.96.56,1.12.11,2.29.23,3.47.33,1.66.15,3.15.2,4.47.2,1.66,0,3.09-.08,4.35-.15.79-.04,1.5-.09,2.15-.1h.34c2.34-.05,2.78-.14,4.61-3.26,2.14-3.64,4-11.17,5.18-16.84.35-1.66.58-3.36.72-5.02.13-1,.2-2.16.17-3.46Zm-34.82,21.24l-.14-.19c-.38-.53-.71-1-.36-1.78.51-1.13.6-1.88.6-3.4,0-1.31,1.2-4.96,2.22-6.73,1.06-1.84,3.28-7.1,3.78-9.44.22-1.03.31-1.95.38-2.77.1-1.04.18-1.94.51-2.85.62-1.73.99-3.05,1.22-4.29.16-.84.4-1.42.54-1.69.53,0,1.09-.05,1.71-.17l.36-.07c1.86-.36,3.47-.67,5.19.06.37.16.75.35,1.13.56.11.06.23.14.34.21.26.16.53.33.79.52.6.42,1.19.9,1.78,1.45.47.44.94.89,1.26,1.38.04.07.08.13.11.2.06.11.11.23.15.35.12.37.14.74.04,1.12-.17.6-.52,1.14-.89,1.71l-.1.15c-.59.9-1.02,1.77-1.3,2.62,0,0,0,0,0,0,0,0,0,.01,0,.01-.45,1.38-.51,2.69-.15,3.92.11.38.8,1.55,1.87,3.33.21.34.36.59.39.65.87,1.78.49,4.73-.02,8.82l-.16,1.3c-.41,3.31-.81,4.7-1.01,5.23-.48-.23-1.44-.6-2.98-.91-2.33-.47-5.05-.06-8.97.81-1.67.37-3.38.61-5.07.72-.51.03-1.02.05-1.53.05-.16,0-.31,0-.47,0h-.33c-.23,0-.46,0-.68-.02.04-.25,0-.54-.22-.85Zm23.56-44.05c.8.45,1.57,1.01,2.23,1.82.73.9,1.35,1.93,1.96,2.92.25.42.51.83.77,1.24l.75,1.17c.75,1.15,1.38,2.14,2.01,3.24-1.29.79-5.27,3.03-9.57,3.7-.34-.44-.75-.83-1.14-1.19-.46-.43-.92-.8-1.38-1.15,2.07-2.68,3.74-9.13,4.36-11.75Zm-23.61-.7c-.08.02-.16.04-.24.07-.85.39-2.43.32-3.16.07-1-.34-1.54-1.42-1.2-2.42.24-.73.88-1.21,1.6-1.29,0,0,0,0,0,0h0c.39-3.41-2.6-6.38-2.6-6.38l4.54-.93c.09.03.18.04.27.07,1.49.5,2.69,1.55,3.39,2.96.7,1.41.81,3,.31,4.49-.49,1.47-1.53,2.66-2.91,3.36Zm1.32.2s-.05-.01-.08-.02l-.02-.02s-.03,0-.04-.02c1.13-.8,1.98-1.93,2.43-3.27.03-.09.05-.18.08-.27.42.28,1.01.61,1.24.73,1.76.93,2.82,1.43,4.61,1.41-.83.37-1.65.74-2.51,1.09-.84.34-1.72.88-2.57,1.39-.29.17-.56.34-.83.5-.41.24-.64.57-.82.91-.29-1.21-.88-2.16-1.5-2.42Zm-6.68,40.1c.37-.22.65-.57.98-.97.31-.38.66-.81,1.16-1.23,1.32-1.08,1.92-4.76,2.2-7.65.28-2.97.73-4.44,1.29-6.3.1-.34.21-.69.32-1.07.74-2.52.88-3.14.92-4.63.01-.45.08-.97.16-1.52.17-1.25.36-2.66.07-4.26-.35-1.89.15-3.6.44-4.62.04-.16.09-.3.12-.43.34-1.3.39-1.95.38-1.95,0,0,0,0,0,0,.15-.72,1.01-1.92,4.3-3.59,2.1-1.06,4.23-1.83,5.59-.28,2.1,2.38-.01,6.01-.71,7.06-.97,1.46-2.3,1.82-2.91,1.92.65-2.1,1.46-3.1,1.47-3.12.13-.16.11-.4-.05-.53-.16-.13-.4-.11-.53.05-.04.05-1.07,1.29-1.79,3.96-.06.23-.12.48-.18.74-.13.35-.25.78-.35,1.28-.22,1.2-.59,2.48-1.19,4.17-.35,1-.45,1.99-.55,3.03-.08.83-.16,1.69-.37,2.68-.48,2.24-2.69,7.46-3.7,9.22-1.01,1.76-2.32,5.52-2.32,7.1,0,1.43-.08,2.08-.53,3.1-.53,1.18.03,1.96.43,2.53l.13.18c.13.19.12.31.09.38-.62.04-1.06-.75-1.42-2.3-.09-.41-.36-.75-.76-.95-.5-.25-1.16-.26-1.68-.03-.67.3-.69,1.04-.71,1.63,0,.26-.02.52-.07.74-.14.57-.32,1.02-.74,1.44.06-.18.11-.37.14-.57,0-.03.01-.06.01-.09.16-1.09-.02-2.38-.08-2.75-.29-1.71.08-2.17.42-2.37Zm5.9,10.23c-.68.05-1.37.11-2.05.17-1.87.16-3.65.31-5.15.35-2.05.05-4.02.19-4.12.21-.25.07-1.03.22-1.35-.07-.13-.12-.32-.13-.46-.03,0,0-.41.26-.75.05-.09-.06-.2-.07-.3-.05-.11.03-.3.03-.37-.08-.08-.1-.17-.26-.17-.3.02-.14.4-.7,1.69-.7.09,0,.17-.03.24-.08.57-.46,1.16-.89,1.74-1.28.49-.33,1.04-.57,1.63-.82.67-.29,1.36-.59,1.96-1.04.08.13.19.26.37.31.07.02.13.03.2.03.23,0,.47-.11.73-.32.79-.65,1.05-1.37,1.22-2.05.07-.29.08-.6.09-.9.02-.54.04-.87.26-.97.32-.14.75-.14,1.04.01.2.1.32.25.37.45.18.78.72,3.14,2.35,2.86.41.08.85.09,1.23.09h.09c-.36.94-.74,2.5-.23,4.15-.09,0-.19,0-.27.01Z"/></svg>