<svg xmlns="http://www.w3.org/2000/svg" viewBox="0 0 100 125" x="0px" y="0px"><path d="m84.07,36.16c-.33-1.34-1.42-2.41-2.75-2.74-1.24-.3-2.41,0-3.28.68l-6.13-.03c-2.09,0-3.86,1.38-4.45,3.28,0,.01,0,.02,0,.04l-.55-.94c-.03-.91-.47-1.89-.9-2.52-1.11-1.64-2.93-3.67-4.53-5.46-.68-.76-1.33-1.48-1.87-2.12l-.31-.37c-.84-1-1.26-1.5-3.02-3.24-1.53-1.52-6.6-4.83-10.42-5.32-.07-.03-.13-.07-.2-.09-.62-.22-1.23-.42-1.85-.51-1.56-.21-3.33-.45-5.01-.1-2.85.6-5.03,2.24-6.14,4.62-1.23,2.65-1.02,6.02.58,9,1.14,2.12,2.77,3.95,4.37,5.6.51.53,1.1,1.13,1.75,1.66.66.54,1.38,1.01,2.08,1.46.36.23.73.48,1.09.73.1.07.2.13.3.2h-.09c-3.78.57-7.35,1.1-11.16.89-.29-.09-.56-.24-.78-.45-.31-.3-.52-.69-.76-1.11-.09-.17-.19-.34-.29-.5-.51-.84-1.11-1.3-1.77-1.38-.45-.05-.93.08-1.45.39-.62.37-1.14.88-1.64,1.36-.26.25-.52.5-.79.74-1.19,1.02-2.7,1.71-4.5,2.07l-.35.07c-1.13.21-2.42.46-3.15,1.52-.26.38-.44.95-.17,1.43.33.56,1.02.57,1.36.58.78.01,1.58.05,2.36.1.98.07,1.72.16,2.42.3.26.05.52.11.78.17.5.11,1.02.23,1.55.29.41.05.83.06,1.24.06.31,0,.62,0,.93-.02l4.6-.12h0c6.31.45,12.59,2,18.67,3.5l.62.15c.74.18,1.49.36,2.26.49-.48.52-.95,1.05-1.41,1.57l-4.77,5.44c-.63.72-1.23,1.53-1.3,2.51l-.28,4.03.04.53c.15,4.01.67,8.57,1.54,13.55-.36,1.44-.16,2.66.58,3.44.58.6,1.73,1.21,3.97.72.49-.11,1.02-.2,1.52-.11.32.06.63.13.93.19.64.14,1.25.27,1.82.27h3.15c.53,0,.95-.16,1.24-.49.45-.51.39-1.2.38-1.27l-.03-.26-4.78-1.11-4.56-2.02c-.11-1.48-.04-3.36.04-5.51.08-2.02.16-4.3.1-6.69l-.06-.91c0-.23,0-.44.01-.64,0-.63,0-1.09.3-1.67.27-.53.78-.92,1.31-1.32.23-.17.46-.35.67-.54.56-.49,1.01-1.07,1.45-1.63.21-.27.42-.54.65-.8.52-.61,1.12-1.17,1.7-1.72.38-.35.77-.7,1.17-1.05.33-.29.66-.58.97-.87.67-.61,1.42-1.1,2.21-1.62.4-.26.81-.53,1.2-.8,2.33-1.66,4.24-3.98,5.47-6.59.82,2.32,2.88,3.98,5.32,4.32l-.12.07c11.72,4.92,9.13-9.06,9.13-9.06h-.02c1.39-.82,2.23-2.48,1.78-4.29Zm-52.34,9.4c-.09.04-.23.05-.36.05l-4.82.13c-.68.02-1.39.04-2.06-.04-.49-.06-.97-.16-1.47-.28-.27-.06-.53-.12-.8-.17-.72-.14-1.49-.23-2.5-.31-.8-.06-1.61-.09-2.41-.11-.3,0-.62-.03-.72-.2-.09-.16,0-.44.13-.63.55-.81,1.63-1.01,2.67-1.21l.35-.07c1.93-.38,3.55-1.13,4.84-2.23.28-.24.56-.51.83-.77.49-.48.96-.93,1.5-1.26.33-.2.62-.3.87-.3.04,0,.07,0,.11,0,.53.06.95.59,1.22,1.03.09.16.18.32.27.48.25.45.5.91.89,1.28.46.44,1.07.71,1.7.75.05.96.07,1.93.05,2.89,0,.54-.11.85-.29.95Zm20.54-13.12c-.95-1.19-1.99-2.39-3.16-3.64-.31-.33-.61-.65-.92-.98,1-1.87,1.2-4.27.54-6.63-.3-1.09-.79-2-1.41-2.69,3.2.94,6.97,3.33,8.41,4.76,1.74,1.72,2.15,2.21,2.97,3.19l.08.09-6.51,5.89Zm15.99,9.72c-.94,3.55-3.2,6.81-6.2,8.95-.38.27-.78.53-1.17.79-.79.51-1.6,1.04-2.31,1.69-.31.29-.63.57-.96.85-.4.35-.81.71-1.19,1.07-.59.56-1.21,1.14-1.75,1.77-.23.27-.45.55-.67.83-.44.56-.85,1.09-1.36,1.53-.2.18-.42.34-.63.5-.58.44-1.17.89-1.52,1.58-.38.74-.38,1.33-.38,2.01,0,.19,0,.39,0,.65l.06.92c.06,2.36-.03,4.63-.1,6.64-.08,2.29-.16,4.26-.01,5.83l.02.22,5.03,2.22,4.29,1c-.02.14-.07.31-.19.44-.14.16-.37.23-.68.23h-3.15c-.49,0-1.03-.12-1.66-.26-.31-.07-.62-.14-.96-.2-.19-.03-.38-.05-.57-.05-.43,0-.84.08-1.24.16-1.48.33-2.64.15-3.26-.5-.57-.59-.7-1.59-.38-2.81l.02-.08v-.08c-.89-4.98-1.41-9.53-1.56-13.55l-.04-.49.28-3.97c.05-.76.57-1.44,1.11-2.06l4.77-5.44c.57-.65,1.17-1.31,1.78-1.95.03,0,.06,0,.09,0v-.1c.3-.3.59-.61.89-.89,1.06-.98,2.2-2.13,3.06-3.52,2.07-2.06,4.33-4.03,4.36-4.05.16-.14.17-.37.04-.53-.14-.16-.37-.17-.53-.04-.02.02-1.24,1.09-2.72,2.47-.31-.9-.45-2.37-.34-3.25.11-.5.26-.98.47-1.42.65-1.44,1.81-2.55,3.16-3.07,1.28-.49,2.87-.24,4.15.65l1.56,2.65c.25.42.51.86.58,1.32.06.4-.02.81-.15,1.31Zm10.23,4.26l-4.02,2.34c-.09,0-.17.01-.26.01-2.83,0-5.24-2-5.77-4.77.21-.54.4-1.1.55-1.66.14-.51.25-1.06.17-1.61-.03-.2-.09-.39-.16-.58.26-.5.59-.93.96-1.32.09-.06.18-.13.26-.2.68-.64,2.2-1.08,2.97-1.08,1.06,0,1.91.86,1.91,1.91,0,.77-.45,1.43-1.11,1.73,0,0,0,0,0,0h0c.72,3.36,4.5,5.21,4.5,5.21h0s0,0,0,0Z"/></svg>