<svg xmlns="http://www.w3.org/2000/svg" viewBox="0 0 100 125" x="0px" y="0px"><path d="m82.05,30.45c-.02-.13-.1-.24-.22-.3-.12-.05-.26-.04-.37.03,0,0-.95.64-2.08.51-.65-.07-4.03-.35-6.99,1.36-2.76,1.59-5.24,2.64-6.99,2.93-.16.03-.36.06-.58.08-1.62.21-4.74.32-8.35.45l-1,.04c-.32-.93-.9-1.57-1.75-2.26-.47-.38-1.04-.65-1.63-.76-.32-.06-.61-.08-.88-.09-.19-.34-.73-1.15-1.68-1.43-.77-.23-1.6-.07-2.48.47l-.52.32c-2.05,1.26-3.57,2.23-4.6,4.77-2.55.54-4.32,1.45-5.38,2.74-.03.03-.06.06-.08.09-.15.19-.28.4-.4.61-.04.07-.09.13-.12.2-.08.16-.14.33-.2.49-.15-10.11-11.43-4.2-11.43-4.2v.02c-1.18-1.09-3.02-1.4-4.61-.44-1.18.71-1.89,2.07-1.8,3.44.08,1.27.72,2.3,1.61,2.93l1.78,5.86c.38,1.23,1.23,2.18,2.28,2.73.33.17.68.3,1.04.4h1.16c.07.82.16,1.74.25,2.56.05.43.04,1.02.02,1.7-.03,1.56-.05,3.57.58,5.22.05.16.1.32.16.49,1.21,3.17,4.33,5.97,7.58,6.81.35.09.73.17,1.14.25.07.01.13.03.2.04.36.06.75.12,1.15.18.14.02.29.04.44.06.36.04.74.09,1.13.12.2.02.41.04.62.06.37.03.75.06,1.14.09.22.02.44.03.66.04.39.03.78.05,1.17.07.2.01.41.02.61.03.47.02.93.04,1.4.06.09,0,.18,0,.28.01.58.02,1.15.04,1.72.06.04,0,.07,0,.11,0,.62.02,1.24.03,1.84.05.03,0,.06,0,.09,0h0c.36,0,.72.02,1.07.03,1.73.04,3.3.08,4.59.14.11,0,.22.01.33.02.13,0,.27.01.39.02.1,0,.2.01.3.02.12,0,.24.02.36.03.08,0,.16.01.24.02.18.02.35.03.51.05.41.05,1.64.18,3.28.18,4.59,0,12.29-1.05,13.56-7.94,1.53-8.27-11.16-13.92-11.71-14.15-.05-.02-4.5-1.86-8.22-2.79l4.38-1.81c.23-.09.48-.18.76-.28.04-.01.08-.03.12-.04,1.79-.58,4.39-1.09,6.23-1.4.07-.01.14-.02.21-.03.16-.03.32-.05.47-.07.69-.11,1.25-.18,1.57-.21.5-.05,1.12.31,1.78.69,1.02.59,2.17,1.27,3.43.72,1.38-.6,1.86-2.07,2.36-3.63.25-.78.51-1.58.9-2.3.88-1.66,3.51-2.61,4.62-3.02.28-.1.49-.18.59-.23.08-.04.19-.07.3-.11.64-.21,1.83-.59,1.56-2.84Zm-45.08,15.51c-.09.1-.18.2-.26.29-.2.21-.5.5-.85.85-.67.66-1.59,1.56-2.56,2.59-.02-.17-.03-.34-.05-.58l-.03-.4c1.58-1.28,2.5-3.23,2.47-5.28.23.79.67,1.63,1.29,2.54Zm-12.7.14c-.31-1.01.25-2.08,1.26-2.39.73-.23,1.5.01,1.98.54t0,0h0c2.99-1.67,3.65-5.84,3.65-5.84h0l3.41,3.14c.03.09.07.17.1.25.96,3.1-.78,6.4-3.88,7.36-1.46.45-3.02.32-4.38-.37-.07-.07-.15-.12-.24-.17-.81-.46-1.68-1.79-1.9-2.52Zm2.54,11.05c0-.49,0-.96,0-1.4.01-.71.02-1.32-.03-1.79-.17-1.57-.34-3.53-.41-4.37.85.38,1.76.58,2.67.58.66,0,1.32-.1,1.97-.3.54-.17,1.03-.4,1.49-.68.04.48.06.74.12,1.21-1.32,1.44-2.68,3.09-3.67,4.71-.03.02-.06.04-.1.06-.1.06-.2.11-.3.17-.14.09-.27.19-.39.29-.08.06-.16.11-.23.17-.13.11-.25.23-.37.35-.05.05-.11.1-.16.16-.16.18-.31.36-.44.56-.06.09-.11.19-.16.28Zm14.29-5.4s-.05.07-.06.11c-1.2,2.22-2.36,4.22-3.06,5.15l-.38.51c-.08.11-.1.26-.04.38.32.69.49,1.42.49,2.17,0,2.83-2.3,5.13-5.13,5.13s-5.13-2.3-5.13-5.13c0-1.03.31-2.03.89-2.88.01-.02.02-.04.03-.06.89-2.05,2.71-4.31,4.47-6.23.08-.04.14-.11.17-.19,1.15-1.24,2.25-2.32,3.03-3.08.36-.35.66-.65.87-.86,1.47-1.52,4.03-5.88,5.13-9.22.94-2.87,2.3-3.71,4.56-5.1l.52-.32c.5-.31.96-.46,1.38-.46.16,0,.32.02.47.07.66.2,1.07.78,1.23,1.05-.13.3-.43.96-.79,1.7-.45.95-1.05,2.15-2.1,3.91-.22.36-.4.66-.58.94-.68,1.1-1.14,1.82-2.14,4.45-.7,1.84-2.3,5.09-3.85,7.97Zm8.07,16.9c-.24,0-.49-.01-.74-.02-.49-5.16.53-10.26.89-11.8,1.5,1.03,3.23,2.18,3.8,2.55-.42,3.75-.08,7.88.08,9.39-1.18-.05-2.55-.08-4.03-.12Zm6.65-8.31c.56.31,1.08.63,1.6.91.52.27,1,.54,1.46.78.46.22.88.43,1.25.62.18.1.36.18.53.25.16.07.32.14.45.2.55.24.86.38.86.38,0,0-.32-.11-.89-.31-.14-.05-.3-.11-.47-.17-.17-.06-.35-.13-.54-.21-.38-.16-.82-.34-1.29-.55-.47-.22-.96-.47-1.49-.72-.53-.26-1.07-.56-1.64-.87-.56-.31-1.13-.65-1.71-.99-.57-.35-1.15-.72-1.73-1.08-.57-.38-1.14-.75-1.7-1.14-.55-.38-1.1-.76-1.61-1.14-.52-.37-1.01-.75-1.48-1.11-.47-.35-.9-.7-1.3-1.02-.8-.64-1.45-1.2-1.9-1.59-.45-.39-.7-.62-.7-.62,0,0,.27.21.75.57.47.36,1.17.86,1.99,1.47.41.3.86.63,1.34.97.48.34.98.69,1.51,1.06.52.37,1.07.73,1.62,1.11.55.38,1.13.75,1.7,1.12.57.37,1.15.73,1.72,1.09.58.34,1.13.7,1.69,1.01Zm-2.83-14.89c.39.12.61.2.61.2,0,0-.23-.04-.63-.12-.4-.09-.97-.2-1.66-.35-.69-.15-1.48-.33-2.34-.53-.85-.2-1.76-.42-2.67-.63-.29-.07-.59-.14-.88-.21l.19-.34c.26.06.52.11.78.18.91.22,1.82.45,2.66.68.85.23,1.63.45,2.31.64.67.19,1.23.37,1.62.49Zm1.48-4.74c-.06.15-.11.3-.18.48-.09-.06-.22-.18-.31-.3-.09-.12-.24-.17-.38-.13-.14.03-.25.15-.28.29l-.15.82c-.03.07-.06.09-.06.1-.08.02-.23-.1-.35-.22-.11-.12-.28-.15-.43-.09-.2.09-.27.04-.3.02-.51-.33-.52-2.38-.53-3.37v-.52c-.04-1.68-.78-1.88-.93-1.9-.12-.02-.25.02-.33.11-.08.09-.12.22-.09.34.18.83-.28,1.56-.32,1.63-.09.24-.21.4-.36.47-.05.02-.1.03-.14.04,0-.18,0-.43-.04-.75-.02-.2-.02-.43,0-.67.49-.9.86-1.64,1.15-2.25.32-.67.59-1.27.74-1.61.23,0,.49.02.78.08.47.09.92.3,1.3.61,1.15.94,1.68,1.65,1.78,3.39.09,1.74-.29,2.72-.56,3.43Zm25.79-8.14c-.15.05-.29.1-.4.15-.09.05-.27.11-.52.2-1.3.47-4.01,1.46-5.03,3.37-.41.78-.69,1.62-.95,2.43-.47,1.45-.88,2.71-1.95,3.17-.91.4-1.8-.13-2.75-.68-.76-.44-1.48-.87-2.23-.79-.19.02-.47.05-.81.1.57-1.93.11-3.81-.23-4.77.04,0,.09-.01.12-.02,1.83-.31,4.4-1.39,7.23-3.02,2.14-1.23,4.85-1.45,6.53-1.27.84.09,1.57-.14,2.05-.35,0,1.12-.55,1.3-1.08,1.47Z"/><text x="0" y="115" fill="#000000" font-size="5px" font-weight="bold" font-family="'Helvetica Neue', Helvetica, Arial-Unicode, Arial, Sans-serif">Created by Pris</text><text x="0" y="120" fill="#000000" font-size="5px" font-weight="bold" font-family="'Helvetica Neue', Helvetica, Arial-Unicode, Arial, Sans-serif">from the Noun Project</text></svg>