<svg xmlns="http://www.w3.org/2000/svg" viewBox="0 0 100 125" x="0px" y="0px"><path d="m84.91,36v.02c-.7-1.2-2.14-1.92-3.7-1.54-1.15.28-2.08,1.22-2.36,2.38-.26,1.07,0,2.08.58,2.83l-.03,5.29c0,.89.3,1.7.78,2.36-.15,0-.3,0-.45.02,0,0-.01,0-.02,0-3.03-.45-13.01,1.07-13.11,1.08-.83.13-2.47.43-4.2.74-2.29.42-4.66.85-5.54.96-1.48.18-1.75.08-2.96-.73-1.05-.7-1.95-.65-2.38-.57-.5-.47-1.19-.51-1.22-.51-1.09-.08-1.45.58-1.48.93,0,.01,0,.03,0,.04-.08,0-.15-.02-.23-.03l-.36-.06c-.67-.11-1.5-.25-2.09-.08-.76.23-.83.75-.76.99.04.14.15.24.3.27l.44.08s0,.01,0,.02c.07.19.25.33.45.37.24.04,1.07.08,1.31.07.37.05,3.46,1.21,4.63,1.65l.45.17c1.38.52,1.88.65,3.25.65s6.87-.03,8.67-.07c1.07-.02,1.81-.14,2.45-.25.46-.08.9-.15,1.4-.18.53-.03,1.8,0,3.05.04-.07.06-.15.14-.22.2-.19.16-.37.29-.55.43-.12.09-.24.19-.36.27-.29.2-.57.37-.84.5-1.48.74-4.31,1.65-5.56,1.35h-.04c-.42-.12-.98-.4-1.63-.72-1.46-.72-3.29-1.63-5.28-1.55-2.33.08-3.54,1.11-4.26,1.73-.18.15-.33.28-.42.33-.28.11-2.02.29-8.76.54l-.5.02c-1.25.05-4.83,0-6.41-.84-1.56-.83-3.5-1.85-6.25-2.06-.87-.07-2.06-.13-3.31-.2-2.11-.12-4.47-.25-5.68-.4,0,0,0,0,0,0-.02,0-.04,0-.06,0-.14-.02-.25-.04-.35-.06-.03,0-.07-.01-.1-.02-1.28-.27-1.93-.71-2.57-1.71-.69-1.09-2.13-.5-3.65.12-.45.18-.91.37-1.39.54-1.93.66-3.61.24-4.04.05-.48-.22-.88-.03-1.14.22-.18-.03-.32,0-.42.05-.25.11-.39.32-.48.49-.24.07-.4.2-.49.39-.02.05-.04.09-.05.14-.27.1-.46.25-.57.45-.19.36-.03.71-.02.74.35.81,1.34.97,2.39,1.14.25.04.5.08.75.13.44.09.97.22,1.58.36,1.3.31,2.92.7,4.58.94,1.65.24,2.24.23,3.03.23.23,0,.49,0,.8,0h.09c.07,0,.17.03.27.05.16.03.32.06.45.07,1.37.05,6.1,1.75,9.22,2.87,1.3.47,2.32.83,2.87,1,.19.06.37.13.54.21l.97.51c.32.2.62.41.91.62.67.47,1.29.92,2.07,1.18.73.24,1.41.31,2.45.42,1.27.13,3,.31,5.94.92,4.12.86,9.28,1.07,12.08,1.07.66,0,1.18-.01,1.54-.03.5-.02.94-.04,1.38-.06.87-.03,1.76-.07,3.13-.16.29-.02.63-.04.98-.06.88-.04,1.92-.08,2.96-.12,1.5-.06,3.05-.11,4.03-.19,1.77-.14,4.91-1.39,5.6-1.67.07.02.13.03.2.05.34.1.66.2.96.26,1.15.23,2.07.16,2.78-.22,1.2-.65,1.57-2.06,1.9-3.31l.09-.34c.19-.7.28-1.38.38-2.04.15-1.07.3-2.09.82-3.09.12-.23.28-.63.43-.99.26-.42.57-.82.89-1.23.15-.19.31-.39.46-.59.79-1.04.81-1.08,2.1-3.16,2.42-.43,4.31-2.37,4.68-4.81v.02c4.26-10.12-7.82-7.89-7.82-7.89Zm-15.55,16.14c-.27,0-.49,0-.65.01-.55.03-1,.1-1.48.19-.65.11-1.33.22-2.34.24-1.8.03-7.31.07-8.66.07-1.27,0-1.67-.11-2.99-.6l-.45-.17c-3.41-1.28-4.6-1.69-4.87-1.69-.26,0-.76-.02-1.04-.04,0-.04,0-.07-.02-.11-.04-.1-.11-.17-.2-.21.43-.03,1.01.07,1.46.15l.37.06c.67.1,1.65.12,1.69.12.14,0,.3-.1.36-.25.06-.15,0-.32-.11-.42-.06-.05-.28-.22-.55-.36.1-.03.23-.04.39-.03,0,0,.56.04.84.41.1.13.28.18.43.13.04-.01.87-.3,1.96.42,1.33.89,1.77,1.06,3.47.85.9-.11,3.28-.55,5.58-.97,1.72-.31,3.35-.61,4.18-.74,2.75-.43,10.42-1.45,12.89-1.08,2.59.39,3.42,1.05,3.82,3.05.25,1.22-.1,2.69-.92,3.85-.63.9-1.44,1.46-2.28,1.58-1.91.28-3.78.01-4.72-3.55h3.73c.21,0,.38-.17.38-.38s-.17-.38-.38-.38h-4.89c-1.2-.05-3.65-.15-4.99-.15Zm-23.2,4.53s.06,0,.08,0c0,0-.02,0-.02,0-.02,0-.04,0-.06,0Zm-27.41-.71c-.79,0-1.32,0-2.92-.22-1.62-.23-3.22-.62-4.51-.92-.62-.15-1.16-.28-1.61-.37-.26-.05-.53-.1-.78-.14-.84-.13-1.63-.26-1.83-.79.02-.04.12-.11.36-.15.12-.02.23-.1.28-.21.04-.08.05-.17.02-.26.03,0,.06-.02.11-.02.14-.02.26-.13.3-.27.03-.1.11-.22.22-.2.18.09.4.03.5-.14.06-.1.18-.24.37-.16.54.25,2.42.72,4.59-.02.49-.17.97-.36,1.43-.55,1.48-.6,2.39-.93,2.73-.41.62.97,1.29,1.51,2.34,1.85-.94.91-1.1,2.22-1.1,2.97-.19,0-.36,0-.51,0Zm52.64,8.29c-.97.07-2.51.13-4,.19-.86.03-1.73.06-2.5.1-.78-2.28-.55-6.37-.41-8.08.12.01.23.04.37.04,1.73,0,4.26-.96,5.31-1.49.13-.07.27-.16.41-.24.41,1.61,1.69,5.79,4.52,8.5-1.19.43-2.7.9-3.7.98Zm12.84-11.97s0,0,0,0c0,.01,0,.03,0,.04,0-.01,0-.02,0-.03Zm1.11-.9c-.09.12-.18.23-.27.34.03-.93-.21-1.88-.71-2.59-.23-.33-.51-.6-.81-.82l.11-.62c.95.68,2.1,1.08,3.36,1.08.03,0,.05,0,.08,0-.98,1.57-1.06,1.69-1.76,2.61Zm1.68-3.36c-1.62,0-3.05-.78-3.97-1.98-.39-.66-.64-1.63-.64-2.16,0-.91.74-1.65,1.65-1.65.66,0,1.23.39,1.5.95h0s0,0,0,0c2.9-.62,4.5-3.88,4.5-3.88l1.95,3.34c0,.12.04.23.04.35,0,2.77-2.25,5.03-5.03,5.03Z"/></svg>