<svg xmlns="http://www.w3.org/2000/svg" viewBox="0 0 100 125" x="0px" y="0px"><path d="m74.47,18.8c-1.68-2.39-4.37-3.71-7.77-3.81-.54-.01-1.09,0-1.65.05-.12.01-.25.03-.38.04-.45.04-.89.1-1.35.18-.11.02-.22.05-.34.07-.47.09-.94.18-1.41.3-.1.03-.21.06-.31.08-.47.12-.93.25-1.4.4-.13.04-.26.09-.4.13-.41.13-.82.27-1.22.42-.23.08-.46.17-.69.26-.27.1-.54.21-.81.32-.43.17-.84.35-1.24.53-.05.02-.1.04-.15.07-.66.29-1.3.59-1.88.88-.01,0-.02.02-.03.03-2.23,1.12-4.26,2.31-5.87,3.36-.02,0-.03,0-.05.02-1.06.69-2.03,1.38-2.79,1.97-.44.34-.88.68-1.33,1.01-3.35,2.53-6.82,5.15-8.28,11.72,0,.04-.06.36-.09.84-1.89-.55-3.99.11-5.16,1.83l-3.43,5.08c-1.05.34-1.96,1.14-2.41,2.33-.49,1.29-.21,2.79.71,3.82,1.24,1.38,3.09,1.63,4.54.94v.02s4.48,4.44,8.22,3.71c0,.03,0,.06,0,.09-.19.03-.36.09-.5.23-.5.46-.27,1.09-.08,1.36,0,.01.02.02.02.03,0,0,.11.11.25.22-.06,0-.13,0-.19.03-.24.09-.43.27-.55.56-.28.66-.13,1.06.03,1.28-.02.04-.04.08-.06.12-.18.23-.39.58-.57,1.14-.39,1.23-.73,2.28.15,4.11.6,1.24,1.96,2.93,3.11,2.93.05,0,.1,0,.15-.02.13.02.25.04.36.04.04,0,.07,0,.11,0,.74-.04,1.47-.54,1.95-1.33l.21-.33c.7-1.1,1.66-2.6,1.77-6.1.03-.91.04-2.06.06-3.29.05-3.62.11-8.58.62-9.6.21-.43.49-.88.78-1.37.18-.29.36-.59.52-.89.31-.17.6-.35.89-.54.59-.38,1.15-.74,1.9-.96.37-.11.76-.2,1.15-.29,2.37-.55,5.04-1.16,4.1-6.29.14-.06.31-.14.51-.24.61-.31,1.46-.81,2.2-1.52.11-.11.23-.23.35-.36.02-.03.05-.06.08-.09.11-.12.22-.25.34-.39.01-.01.02-.02.03-.03,0,0,0,0,0,0,.23-.28.46-.58.71-.89.65-.83,1.4-1.79,2.11-2.43-.67,1.31-1.82,3.67-3.32,7.22-2.44,5.78-3.49,11.24-2.72,14.25.15.58.31,1.15.48,1.74.18.63.37,1.29.56,2.02.47,1.84.92,4.16,1.2,7.75.34,6.56,0,10.62-.58,11.19-.53.53-1.7,1.19-2.95,1.9-.77.44-1.57.89-2.28,1.35-1.83,1.18-4.76,1.85-5.39,1.75-.12-.02-.24.02-.32.11-.08.08-.12.2-.1.32,0,.04.15.93.92,1.4.52.32,1.18.37,1.96.14.13.05.37.13.67.21-1.32.45-2.56.68-2.95.62-.12-.02-.24.02-.32.11-.08.08-.12.2-.1.32,0,.04.15.93.92,1.4.52.32,1.18.37,1.96.14.4.15,1.63.55,3.24.55.85,0,1.79-.11,2.78-.43,1.89-.61,3.88-.39,5.34-.24.97.1,1.67.18,2.13.01,1.16-.41,2.19-1.27,1.87-4.78-.1-1.08-.17-2.11-.21-3.09,0,0,0-.01,0-.02-.08-2.08-.03-3.92.14-5.51,0-.06.01-.13.02-.19.06-.5.13-.98.22-1.43.07-.36.15-.73.22-1.12.62-3.05,1.4-6.85.37-11.72-1.16-5.49-.6-6.61.66-8.43l.09-.13c4.72-6.77,8.11-12.42,9.94-16.58.03-.06.05-.12.08-.18.11-.26.22-.51.32-.75.25-.6.45-1.17.62-1.7,1.19-3.7.8-7.33-1.06-9.96Zm-38.69,18.92c.03-.05.06-.1.09-.16-.03.08-.07.16-.1.24,0-.03,0-.06,0-.09Zm.59,14.16s.6-4.17-1.77-6.65h0s0,0,0,0c-.62.37-1.42.37-2.05-.06-.87-.6-1.1-1.79-.5-2.66.43-.63,1.65-1.65,2.56-1.85.06-.01.1-.04.16-.06.17-.03.35-.06.53-.08.2.78.53,1.59,1.08,2.31.02.02.04.04.06.05,0,0,0,0,0,0-.05.53-.16,2.49.56,6.22.15.78.26,1.56.34,2.32l-.96.46Zm1.15,4.37s.09-.07.2-.06c.17.03.37.19.48.4.12.21.17.35.19.43,0,0-.02,0-.02,0-.47-.06-.77-.33-.83-.4-.04-.06-.13-.25-.01-.36Zm-.36,1.94c.03-.08.07-.13.11-.15.12-.04.44.13.64.24.11.06.22.12.32.16.9.39,1.39.75,1.45.88.04.12.04.23,0,.28-.04.06-.16.1-.32.1-.41-.02-1.55-.55-2.24-.96-.05-.05-.09-.22.05-.56Zm-.59,5.72c-.42-.99-.41-1.67-.23-2.41.01.05,0,.11.03.16.05.11.12.2.21.28-.08.65-.1,1.31-.02,1.96Zm.06-3.33c.03-.08.06-.15.08-.22.02.02.04.03.06.06-.07.05-.1.11-.14.16Zm.39-.61s.03-.29.3-.33c.01,0,.03,0,.04,0,.43,0,1.88.64,2.16.94,0,.1-.01.24-.06.28-.02.01-.08.06-.29.05-.49-.02-1.67-.34-2.05-.76-.06-.07-.09-.13-.09-.19h0Zm.09,1.29s.03-.07.04-.11c0-.03.03-.09.06-.11.01,0,.03-.01.06-.01.03,0,.06,0,.09.01,1.02.21,1.21.39,1.2.51-.01.09-.05.11-.06.12-.1.06-.37.09-.82-.03-.37-.1-.58-.19-.61-.25,0,0,0-.04.04-.12Zm8.57-18.36s-.04.07-.06.11c-.22.63-.67,1.38-1.1,2.09-.29.48-.58.97-.81,1.42-.54,1.09-.64,4.96-.7,9.92-.02,1.23-.03,2.37-.06,3.28-.1,3.3-1,4.7-1.65,5.72l-.22.35c-.35.58-.86.94-1.36.97-.54.03-1.1-.32-1.64-1-.77-.99-.9-2.22-.78-3.46.06.02.12.04.18.05.22.06.49.11.75.11.24,0,.48-.05.68-.17.22-.14.36-.36.39-.63.28-.02.51-.09.67-.25.26-.25.3-.59.3-.9,0-.11-.04-.21-.08-.3.04-.05.08-.11.11-.16.18-.25.21-.58.1-.94-.12-.41-.75-.86-1.86-1.35,0,0,0,0,0,0,.28-.02.44-.15.53-.27.25-.36.04-.84-.19-1.27-.14-.26-.35-.47-.59-.61.06-1.92-.06-4.21-.54-6.67-.81-4.16-.55-6.03-.54-6.1.02-.09,0-.19-.06-.27-.58-.87-.89-1.88-.89-2.93,0-2.91,2.37-5.28,5.28-5.28s5.28,2.37,5.28,5.28c0,1.19-.39,2.31-1.12,3.25Zm11.67-10.38c-.17.21-.33.42-.49.62-5.36-3.32-7.88-8.6-8.66-10.56,1.51-.97,3.3-2.01,5.23-2.99.68,2.04,2.89,8.09,5.93,10.58-.69.66-1.37,1.53-2.01,2.34Zm-9.68,48.42c-.08-.04-.18-.04-.26-.01-.61.2-1.1.19-1.46-.02-.2-.12-.33-.29-.42-.45,1.29-.11,3.74-.84,5.32-1.86.69-.45,1.48-.9,2.25-1.33,1.29-.73,2.51-1.43,3.1-2.02.08-.08.15-.2.22-.33,0,.07-.01.16-.02.23,0,.03,0,.06-.01.09-.02.22-.05.41-.07.6-.12.91-.29,1.49-.47,1.68-.53.53-1.7,1.2-2.95,1.9-.77.44-1.57.89-2.28,1.35-.36.23-.76.43-1.18.62-1.07-.15-1.78-.44-1.78-.44Zm13.26,2.73c-.3.11-.99.03-1.8-.05-1.52-.16-3.61-.38-5.65.27-2.95.95-5.61-.14-5.63-.15-.08-.03-.18-.04-.26-.01-.61.2-1.11.19-1.46-.02-.2-.12-.33-.29-.42-.45.94-.08,2.48-.49,3.86-1.09.01,0,.03,0,.04,0,.01,0,.03,0,.04,0,.13,0,.23-.08.3-.18.38-.18.75-.38,1.08-.59.69-.45,1.48-.9,2.25-1.33,1.29-.73,2.51-1.43,3.11-2.02.21-.21.38-.63.51-1.2.56.34,1.58.83,2.89.83.7,0,1.49-.15,2.33-.54.04.82.1,1.66.18,2.54.29,3.14-.52,3.7-1.37,4Zm-3-47.69c4.42-9.74,7.3-13.89,7.3-13.89l-7.3,13.89Z"/><text x="0" y="115" fill="#000000" font-size="5px" font-weight="bold" font-family="'Helvetica Neue', Helvetica, Arial-Unicode, Arial, Sans-serif">Created by Pris</text><text x="0" y="120" fill="#000000" font-size="5px" font-weight="bold" font-family="'Helvetica Neue', Helvetica, Arial-Unicode, Arial, Sans-serif">from the Noun Project</text></svg>