<svg xmlns="http://www.w3.org/2000/svg" viewBox="0 0 100 125" x="0px" y="0px"><path d="m65.7,87.23h.02s1.98-10.7-6.96-6.99c-1.74.25-3.2,1.36-3.93,2.89-.14-.01-.28,0-.39,0-.07,0-.15.02-.22.01-.7-.02-1.19-.19-1.43-.49-.22-.28-.18-.59-.17-.66.89-1.74,1.07-3.25.51-4.47-.67-1.47-2.17-2.03-2.63-2.17-.7-.96-.67-2.42-.68-2.5,0-.02-.34-2.27-.57-4.28,0,0,0,0,0,0-.15-1.3-.22-2.23-.21-2.71.04-1.56.23-2.96,1.18-6.35,1.02-3.65,1.09-9.48.71-13.64-.12-1.35-.22-2.46-.3-3.4-.19-2.19-.3-3.51-.53-4.88-.18-1.08-.24-3.44-.29-5.94-.04-1.92-.09-3.9-.2-5.5-.09-1.37-.05-2.81.11-4.41.15-1.45.38-2.82.59-4.02.07-.41.14-.81.2-1.18.32-2.01.35-4.54.36-6.05,0-.42,0-.76.02-.97.03-.81.34-1.23.34-1.24.06-.08.09-.19.07-.3-.02-.1-.09-.2-.18-.25-.47-.28-.84-.24-1.07-.17-.32.11-.52.34-.64.52-.77.15-1.96.77-1.99,2.36-.04,1.62-.85,2.48-2.2,3.9l-.21.22c-1.36,1.44-1,2.3-.5,3.49.12.28.25.59.38.94.24.67.28,1.73.13,3.12-.2,1.88-.72,4.21-1.22,6.25-.97,4.02-.7,5.9-.13,8.51.59,2.72.8,4.18.25,6.78-.2.94-.42,1.89-.66,2.89-.44,1.87-.93,3.98-1.37,6.46-.56,3.21-1.44,4.53-1.62,4.77-3.74,2.18-3.02,6.36-2.25,8.67.34,1.02.67,1.63.93,2.11.24.45.42.78.53,1.27-.11,0-.19,0-.2.01-.13.03-.24.13-.28.25-.7,2.23.33,5.92.66,6.99l.1.3q.21.65-.52,1.92c-.89,1.53-4.32,6.11-4.37,6.18-.25.4-2.47,3.99-1.98,5.52.45,1.38,2.81,1.63,4.45,1.63.52,0,.97-.03,1.26-.05.26-.02.77-.03,1.43-.04,5.99-.12,11.63-.51,12.31-2.52,0-.03.01-.05.02-.08.04-.01.09-.01.13-.04.63-.47,1.16-.74,1.63-.91.01.06.03.13.05.19.3,1.68,1.76,2.96,3.52,2.96l4.71-.02c.67.52,1.57.75,2.52.52,1.03-.25,1.86-1.08,2.12-2.1.34-1.39-.3-2.67-1.37-3.29ZM45.55,15.08l.21-.22c1.37-1.45,2.37-2.49,2.41-4.4.03-1.47,1.37-1.64,1.52-1.66.14-.01.26-.1.31-.23.03-.06.14-.25.29-.3.03-.01.07-.02.1-.02h0c-.12.28-.23.69-.26,1.22,0,.22-.01.56-.02.99-.01,1.49-.04,3.98-.35,5.94-.06.37-.13.77-.2,1.17-.18,1.07-.39,2.28-.54,3.56-.76-.21-1.99-.39-3.22.19.06-1.1-.01-1.96-.24-2.6-.13-.37-.27-.69-.39-.98-.49-1.16-.67-1.59.35-2.68Zm-2.84,56.32c1.82,0,4.13-.23,5.99-1.13.19,1.43.37,2.63.37,2.63,0,.01,0,.09,0,.19-2.54.87-5.12,1.07-6.92,1.07-.51-.83-1.02-2-1.27-2.84.5.04,1.12.07,1.82.07Zm9.09,17.73c-.03.2-.08.41-.16.63-.61,1.79-8.9,1.96-11.62,2.01-.68.01-1.2.02-1.47.04-2.16.16-4.63-.1-4.94-1.06-.29-.9,1.01-3.48,1.88-4.86.14-.19,3.49-4.66,4.4-6.23.84-1.45.88-1.61.58-2.52l-.09-.29c-.21-.69-1.2-4.11-.75-6.22.16.11.37.37.52.91.22.75,1.29,3.67,2.5,4.27.33.16.59.12.76.06.4-.15.74-.41,1.04-.64.34-.26.58-.42.78-.47-.22.28-.5.61-.7.79-.42.37-.64.58-1.08,1.45-.24.47-.55.86-.98,1.39-.27.34-.58.72-.93,1.2-.29.4-.6.99-.9,1.65-.06.06-.1.14-.1.23-.62,1.41-1.14,3.04-1.17,3.65-.04.78-.44,2.52-.44,2.53-.03.13,0,.26.1.35.09.09.22.13.35.1,0,0,1.11-.26,2.4-.55l4.28-.81c.2-.04.34-.23.3-.44-.04-.2-.23-.34-.44-.3l-2.21.42c.45-1.93,1.87-3.12,3.81-3.12,2.48,0,4.5,2.02,4.5,4.5,0,.41-.07.84-.22,1.34Zm-10.46-2.27s-.04.02-.06.02c-.59.13-1.13.26-1.51.34.13-.6.31-1.53.33-2.08.02-.38.32-1.4.73-2.47.3,1.08.64,2.2,1.06,3.37.08.23.17.44.26.65-.18.04-.35.08-.52.12l-.3.06Zm11.28,2.03c.09-.37.14-.74.14-1.1,0-1.04-.31-2-.83-2.82.11-.56.24-1.19.37-1.73.4.41,1.03.62,1.89.64.1,0,.2,0,.31-.02.02,0,.02,0,.04,0-.14.47-.24.96-.24,1.48,0,.98.29,1.89.76,2.67-.66.05-1.45.25-2.44.87Zm6.69-2.25h0s0,0,0,0c.5.23.85.74.85,1.33,0,.81-.66,1.47-1.47,1.47-.43,0-1.17-.18-1.74-.47-1.15-.8-1.9-2.13-1.9-3.63,0-2.44,1.99-4.43,4.43-4.43.14,0,.27.03.4.04l2.89,1.68s-2.91,1.43-3.46,4.01Z"/><text x="0" y="115" fill="#000000" font-size="5px" font-weight="bold" font-family="'Helvetica Neue', Helvetica, Arial-Unicode, Arial, Sans-serif">Created by Pris</text><text x="0" y="120" fill="#000000" font-size="5px" font-weight="bold" font-family="'Helvetica Neue', Helvetica, Arial-Unicode, Arial, Sans-serif">from the Noun Project</text></svg>