<svg xmlns="http://www.w3.org/2000/svg" viewBox="0 0 100 125" x="0px" y="0px"><path d="m89.05,34.7c-.27-.37-.59-.91-.91-1.55.1-.1.16-.25.1-.39,0,0-.19-.5-.35-1.68-.04-.29-.07-.59-.11-.88-.14-1.22-.24-1.99-.57-2.35-.28-.31-.94-.52-2.07-.86-.45-.13-.92-.28-1.38-.43-1.44-.5-3.24-.6-6.07-.6s-6.58-.19-9.23-.47c-1.67-.18-3.3-.51-4.83-1-.47-.15-.92-.31-1.38-.47-1.12-.4-2.28-.81-3.51-1-.1-.02-.58-.06-1.71-.15-.55-.04-1.04-.08-1.19-.1-.31-.2-.6-.26-.81-.26-.97-.57-1.21-1.74-1.24-2.6,1.95-.04,3.52-1.62,3.52-3.58l-.02-4.71c.52-.67.75-1.57.52-2.52-.25-1.03-1.08-1.86-2.1-2.12-1.39-.34-2.67.3-3.29,1.37v-.02s-10.7-1.98-6.99,6.96c.24,1.69,1.29,3.1,2.75,3.86,0,.48,0,.53-.03.79v.17c-.1.99-.38,1.69-.82,2.03-.31.24-.6.24-.7.23-.77.09-.53.02-1.16.06-.7-.16-3.28-.63-5.58.22-1.85.69-4.71.76-6.61.8-.67.02-1.24.03-1.65.06-.89.08-2.55.02-4.01-.03-1.14-.04-2.12-.07-2.64-.04-1.64.1-5.33.2-6.29-.09-.43-.13-.54-.34-.72-.66-.19-.35-.43-.79-1.09-1.11-.47-.23-.88-.38-1.21-.5-.39-.14-.68-.25-.82-.4h0c0-.31-.16-.44-.25-.5-.2-.11-.42-.06-.56.02-.05.03-.09.07-.12.11,0,0-.22.31-.66.7-.37.33-.56.77-.63,1.21-.55-.43-1.38-.9-2.25-.78-.15.02-.28.13-.31.28-.04.15.02.31.15.4,0,0,.64.45,1.35,1.47.9,1.29,2.36,1.64,3.8,1.83,1.73.23,3.58.5,5.35.98,1.04.28,2.97.49,5.02.71,1.68.18,3.42.37,4.5.59,1.71.35,5.14.52,7.65.64.99.05,1.85.09,2.4.13,1.54.12,2.7,2.36,2.93,2.84,1.15,2.83,1.81,6.38.68,8.86-.07.14-.14.28-.22.42-.03.05-.06.11-.09.16-.12.19-.24.36-.38.52-.35.43-.65.92-.92,1.44-1.05,2.07-1.37,4.74-.72,6.92.53,1.78,1.64,3.06,3.2,3.75.22.1.46.18.7.26.17.05.35.08.54.11.39.91.88,2.19,1.19,3.54.58,2.48,1.19,11,.83,13.33-.13.87-.36,1.72-.57,2.54-.36,1.38-.74,2.8-.71,4.4.04,2.2.61,6.91.85,8.92l.08.65c.05.5-.13,1.44-.31,2.36-.19.95-.38,1.94-.36,2.65.01.37.18.68.48.9.43.31,1.09.41,1.76.41.86,0,1.72-.17,2.03-.25.49-.13,1.75-.03,2.76.06.6.05,1.17.1,1.62.11,1.14.02,2.21-.15,2.5-.2.63.12,1.01-.02,1.08-.04.44-.21.61-.52.67-.73.14-.48-.11-.92-.14-.96-.11-.17-.33-.23-.5-.13-.32.17-1.3-.03-1.83-.21-.42-.2-.98-.45-1.57-.72-1.34-.6-3.01-1.35-3.6-1.76-.2-.14-.31-.59-.33-1.34h0s0-.25,0-.25c0-.24,0-.51.01-.79.06-1.29.26-3.09.61-5.41.26-1.73.43-3.44.58-4.96.16-1.63.3-3.05.5-3.98l.03-.12c.39-1.75.55-2.48,2.15-9.59,1.19-5.29.75-8.89.39-10.53,2.68-1.09,5.07-2.32,6.37-3.01.63-.34,1-.55,1.02-.56,1.84-1.09,4.29-1.49,8-2.1l1.5-.25c3.98-.66,7.6-3.36,8.96-4.37.24-.18.41-.3.5-.36.11-.07.33-.16.59-.27.37-.16.83-.36,1.19-.57l.19-.11v-.02c1.03-.45,2.14-.89,2.58-.96.92-.15,1.69-.31,1.76-.33.49-.19.83-.55.97-1.03.31-1.06-.39-2.43-.8-3Zm-32.06-11.07c.74.06,1.54.12,1.65.14,1.17.18,2.24.56,3.38.96.46.17.93.33,1.4.48,1.58.5,3.26.85,4.98,1.03,2.67.28,6.5.48,9.31.48s4.48.09,5.82.56c.46.16.95.31,1.41.44.67.2,1.58.47,1.73.64.18.2.29,1.2.38,1.93,0,.08.02.16.03.23-.55-1.55-2.06-1.83-2.44-1.88-.65-.34-1.22-.4-1.69-.17-.06.03-.11.06-.16.1-.07-.03-.12-.05-.16-.07-.55-.33-2.03-.13-4.59.25-.93.14-1.89.28-2.77.38-4.09.45-7.56.59-10.61.42-.61-.03-1.2-.16-1.82-.29-.68-.14-1.38-.29-2.12-.31h-.21c-.56-.03-1.29-.04-1.95.08-.04-.11-.07-.21-.12-.32-.19-.44-.46-1.25-.75-2.1-.47-1.41-.83-2.44-1.12-3.02.13.01.26.02.43.03Zm-10.88-9.05c0-.14.03-.27.04-.4l1.68-2.89h0s0,0,0,0h0s1.43,2.91,4.01,3.46h0s0,0,0,0c.23-.5.74-.85,1.33-.85.81,0,1.47.66,1.47,1.47,0,.43-.18,1.18-.47,1.75-.8,1.14-2.13,1.9-3.63,1.9-2.44,0-4.43-1.99-4.43-4.43Zm.76,8.55c.25-.03.58-.11.91-.36.63-.48,1-1.34,1.11-2.57l.02-.16c.02-.21.03-.29.03-.55.51.17,1.04.28,1.61.28.93,0,1.79-.27,2.55-.7-.15,1.21.06,3.22,1.62,4.11.24.42,1.44,2.65,1.18,4.26-.21,1.35-1.36,1.79-3.71,1.42-1.78-.28-4.22-.81-4.9-2.24-.55-1.14-.47-2.8-.41-3.49Zm-32.41-.92c.13.11.27.2.4.28.32.2.32.22.3.29-.07.23-.24.42-.43.47-.12.03-.23,0-.33-.1-.07-.07-.09-.3.06-.94Zm25.91,5.54c-.56-.04-1.42-.08-2.43-.13-2.48-.12-5.89-.28-7.53-.62-1.11-.23-2.87-.42-4.57-.6-1.93-.21-3.93-.43-4.91-.69-1.82-.49-3.69-.77-5.45-1-1.47-.19-2.59-.52-3.28-1.52-.19-.27-.37-.5-.54-.7.61.34,1.07.85,1.08.86.11.13.29.17.44.09.15-.07.24-.23.21-.4-.07-.44-.01-1.08.39-1.44.03-.03.06-.05.09-.08-.28.93-.43,1.75,0,2.17.29.28.67.38,1.04.28.44-.12.81-.5.95-.98.19-.64-.32-.95-.62-1.14-.13-.08-.25-.15-.33-.24.16.07.33.13.52.2.33.12.7.25,1.13.46.45.22.6.49.76.8.21.38.44.8,1.16,1.02,1.37.42,6.49.12,6.55.12.48-.03,1.49,0,2.57.04,1.48.05,3.16.11,4.1.03.39-.03.95-.05,1.6-.06,2.06-.05,4.88-.11,6.85-.85,1.98-.74,4.27-.37,5.04-.22.08,2.49-1.19,5.65-1.77,6.96-.6-.96-1.67-2.26-3.05-2.37Zm15.22,63.31c.59.27,1.14.51,1.6.73.24.08,1.29.43,2.05.31,0,.03,0,.07-.01.1-.03.1-.12.19-.24.25,0,0-.26.08-.71-.01-.05,0-.1-.01-.15,0-.01,0-1.21.23-2.42.2-.43,0-.99-.06-1.57-.1-1.18-.1-2.4-.2-3.02-.03-.81.22-2.55.39-3.14-.04-.12-.09-.17-.19-.18-.32-.02-.62.16-1.56.34-2.47.15-.75.29-1.47.32-2.05.34.08.82.17,1.38.17.44,0,.92-.06,1.41-.21.07.9.28,1.42.62,1.66.65.45,2.28,1.18,3.72,1.83Zm-1.25-50.85c-4.65.8-8.13.17-9.54-.18.31-.86.43-1.8.44-2.78.97.22,3.4.7,6.25.7,1.2,0,2.47-.09,3.74-.32-.13.36-.26.7-.39,1.02-.24.58-.4,1.11-.51,1.56Zm23.32-2.29l-1.02.26c-1.82.46-3.09.89-4.11,1.23-1.36.46-2.34.79-3.72.9l-1.18.1c-1.82.15-3.13.25-5.29.46-2.13.21-6.14.46-7.45.53,0-.06.02-.14.03-.21,0-.05.01-.1.02-.16,0-.06.02-.13.04-.2.09-.5.26-1.15.56-1.89.63-1.52,1.28-3.69,1.45-4.27,1.84-1.11,2.44-2.77,1.82-4.91.55-.09,1.18-.07,1.67-.05h.22c.67.03,1.31.16,1.98.3.62.13,1.27.27,1.93.3.85.05,1.73.07,2.65.07,2.42,0,5.09-.16,8.08-.49.88-.1,1.86-.24,2.8-.38,1.58-.24,3.74-.56,4.1-.35,0,0,.02,0,.03.01-.15.28-.2.53-.2.55l-.09.52.52-.08c.59-.1,1.24.53,1.49.83.18.58.08,1.61-.02,2.61-.05.55-.11,1.1-.13,1.63-.04,1.17-2.88,1.88-6.18,2.7Zm11.47-.43c-.08.26-.24.44-.46.53,0,0-.76.15-1.67.3-.49.08-1.52.48-2.51.91-.18-1.1-.81-1.85-1.28-2.26.86-.46,1.35-1,1.38-1.73.02-.51.07-1.05.12-1.58.12-1.16.23-2.26-.04-3l-.06-.1s-.74-.93-1.64-1.13c.07-.11.16-.21.29-.27.32-.16.76.02,1.08.19l.16.04s.52.05,1,.33c.05.1.13.18.24.21.22.06.48.79.68,1.38.09.25.18.51.28.78.16.42.34.72.54.92.38.82.8,1.58,1.2,2.14.47.66.88,1.7.69,2.35Z"/><text x="0" y="115" fill="#000000" font-size="5px" font-weight="bold" font-family="'Helvetica Neue', Helvetica, Arial-Unicode, Arial, Sans-serif">Created by Pris</text><text x="0" y="120" fill="#000000" font-size="5px" font-weight="bold" font-family="'Helvetica Neue', Helvetica, Arial-Unicode, Arial, Sans-serif">from the Noun Project</text></svg>