<svg xmlns="http://www.w3.org/2000/svg" viewBox="0 0 100 125" x="0px" y="0px"><path d="m28.22,83.24c.44.33,1.14.34,1.82.35.28,0,.56,0,.82.04.52.06,1.88.08,3.32.11.9.02,1.82.03,2.54.06,1.81.06,3.65.25,3.67.25.01,0,.03,0,.04,0,.1,0,.19-.04.26-.1.06-.06.09-.14.1-.23,1.95.17,9.01.76,12.18.78,3.69.03,8.28.29,11.59,0,1.39-.12,2.32-.53,2.94-.97.66-.26,1.41-.8,1.93-1.86.63-1.28.83-2.31.68-3.26.04,0,.07,0,.11,0,.29,0,.6-.08.79-.36.08-.13.08-.3-.02-.43,0,0-.15-.2-.41-.63.06.03.12.06.16.08.17.27.39.44.64.5.08.02.16.03.23.03.27,0,.47-.12.5-.14.16-.1.22-.31.13-.48,0,0-.48-.95-.9-1.86-.49-1.03-1.04-1.88-1.55-2.4-.14-.14-.27-.3-.41-.48-.42-.52-.99-1.22-2.09-1.91-.36-.23-.64-.39-.87-.52-.66-.38-.93-.54-2.07-1.71-1.51-1.56-3.17-4.3-4.27-6.11l-.08-.13c-.93-1.54-2.58-3.62-3.78-5.14l-.64-.82c-.94-1.21-1.98-4.61-2.31-5.74.71-.93,1.4-2.41.95-4.38,0-.03-.23-1.12-1.73-2.53-.21-.2-.43-.41-.64-.63-.07-.07-.15-.15-.22-.23-.15-.15-.29-.31-.44-.46-.09-.09-.17-.19-.26-.29-.13-.15-.26-.3-.39-.45-.09-.1-.17-.2-.26-.3-.13-.16-.26-.31-.38-.46-.07-.09-.15-.18-.22-.26-.17-.24-.35-.48-.55-.72-.06-.08-.1-.15-.16-.22-.08-.12-.17-.24-.24-.35-.12-.18-.23-.35-.31-.5-.1-.18-.21-.34-.32-.49-.02-.03-.05-.06-.07-.08-.11-.14-.22-.28-.33-.4-.01-.01-.02-.03-.03-.04,0,0,0,0,0,0-.15-.16-.3-.31-.43-.45-.43-.43-.67-.68-.67-.98,0-.87,0-3.45,1.9-5.03,0,0,0,0,0,0,1.57-1.02,2.67-2.69,2.95-4.63l.05-.08c4.92-11.72-9.05-8.95-9.05-8.95v.02c-.82-1.39-2.48-2.23-4.29-1.78-1.34.33-2.41,1.42-2.74,2.75-.3,1.24,0,2.41.68,3.28l-.03,6.13c0,2.3,1.67,4.2,3.85,4.58.05.02.11.04.16.05-.17.29-.36.52-.58.69-.62.47-1.34,1.09-2.02,1.87,0,0,0,0,0,0-.22.26-.43.53-.63.83,0,.01-.02.03-.03.04,0,0,0,0,0,.01-.19.28-.37.58-.53.89-.03.05-.06.1-.08.15-.09.17-.16.35-.24.54-.06.15-.12.29-.17.44-.05.14-.1.28-.14.42-.1.32-.19.65-.25.99-.07.37-.11.75-.14,1.13,0,.05,0,.11,0,.16-.02.35-.02.71-.01,1.06,0,.04,0,.09,0,.13.01.38.04.76.08,1.12,0,.04,0,.08.01.12.05.41.11.81.17,1.19,0,.02,0,.03,0,.05.07.39.15.76.23,1.1.03.13.06.26.1.39.07.26.13.49.19.7.02.08.05.15.07.23,0,.01,0,.02,0,.03.07.24.16.47.24.7.04.11.07.23.11.34.14.38.28.75.43,1.07.1.22.2.48.3.74.03.08.06.16.09.24.09.25.18.51.26.78.04.13.08.26.11.39.05.16.09.32.14.49.04.16.09.33.13.5.03.13.06.26.09.38.07.32.14.65.19.98.02.1.03.2.05.3.03.2.06.4.08.6.11,1,.1,1.92-.11,2.6-.21.69-.77,1.77-1.68,3.25-.83,1.34-1.78,2.75-2.56,3.9-.34.5-.63.94-.87,1.29-1.3,1.98-2.37,6.5-.65,10.34.6,1.34,1.79,2.36,3.19,3.13-.12.12-.25.23-.37.38-.28.35-.86.27-1.71.11l-.32-.06c-.29-.05-.64-.1-.96-.09-1.11.03-1.96.49-2.38.98-.03,0-.07,0-.07.01-1.3.21-2.05.94-2.02,1.96-.08.34-.06.93.47,1.33Zm16.61-52.01c-1.6,0-3.05-.64-4.11-1.68-.05-.07-.09-.14-.15-.2-.64-.68-1.08-2.2-1.08-2.97,0-1.06.86-1.91,1.91-1.91.77,0,1.43.45,1.73,1.11,0,0,0,0,0,0h0c3.36-.72,5.21-4.5,5.21-4.5h0,0l2.34,4.02c0,.09.01.17.01.26,0,3.24-2.64,5.88-5.88,5.88Zm5.3,11.17c-.77-.71-2.73-3.03-4.3-5.02-1.05-1.33-3.27-4.13-5.64-4.09.35-.36.64-.84.86-1.44.14-.37.22-.65.28-.88,1.02.63,2.21,1.01,3.5,1.01.69,0,1.35-.11,1.98-.3-1.01,1.65-1.02,3.52-1.02,4.25,0,.65.43,1.08.89,1.53.09.09.19.19.29.29,0,.01,0,.02,0,.03.01.03.35.7,1.54,2.13,0,0,.01.02.02.02.17.24.36.48.56.73,0,0,0,.01.01.02.47.66.81,1.28,1.02,1.72Zm1.45,10.74c-.04,1.06-.15,2.16-.34,3.35-.33-.63-.78-1.69-1.22-2.8.54-.16,1.06-.35,1.56-.55Zm17.72,20.85c-.47-.33-2.43-1.59-2.48-1.62-.72-.59-1.43-1.13-2.14-1.53-.64-.36-1.26-.93-1.98-1.6-.37-.34-.76-.7-1.18-1.06-1.22-1.03-5.75-6.57-6.63-7.77-.59-.8-1.46-1.62-2.23-2.33-.29-.27-.57-.53-.8-.76.31-1.73.47-3.25.49-4.73,0,0,0,0,0,0,0-.49,0-.96-.03-1.42.09-.08.22-.19.36-.32.44,1.45,1.38,4.36,2.3,5.54l.65.82c1.19,1.5,2.81,3.56,3.72,5.07l.08.13c1.12,1.84,2.8,4.63,4.37,6.24,1.22,1.25,1.54,1.44,2.24,1.84.22.13.49.28.84.51.99.63,1.5,1.25,1.91,1.75.16.2.31.38.46.54.45.45.95,1.23,1.41,2.19.16.33.32.67.47.97,0,0,0,0,0,0,0,0-.45-.16-.66-.51-.08-.14-.17-.34-.26-.54-.23-.51-.49-1.1-.9-1.38Zm-3.93,1.36c-.76-.67-1.76-1.3-3.56-2.25-1.56-.82-1.51-1.4-1.47-1.78.06-.71-.66-1.06-2.4-1.93l-.81-.4c-1.86-.93-4.87-3.66-6.49-5.12l-.45-.41s-.05-.05-.07-.07c0,0,0,0-.01-.01-1.37-1.26-3.38-3.71-4.53-5.52-.38-.61-1.08-2.04-1.82-3.66,0-.01-.01-.03-.02-.04-1.39-3.02-2.95-6.66-3.04-6.87-.27-1.01-.73-2.72-.95-3.4-.36-1.09-1.27-1.66-1.31-1.68-.17-.11-.41-.05-.51.12-.11.18-.06.41.12.52,0,0,.72.46.99,1.28.19.57.56,1.93.83,2.94-.65.02-1.86,0-2.6-.37-.15-.08-.33-.23-.51-.44-.17-.56-.31-1.13-.42-1.68-.02-.1-.05-.2-.07-.31-.04-.21-.08-.41-.11-.62-.03-.17-.05-.33-.07-.5-.02-.18-.05-.36-.07-.54-.03-.28-.05-.55-.06-.83,0-.15-.01-.29-.01-.43,0-.26,0-.51,0-.76,0-.11.01-.22.02-.33.02-.33.06-.65.11-.96.06-.32.14-.63.23-.92.04-.12.08-.23.12-.35.06-.16.12-.31.18-.47.06-.15.12-.29.19-.43.04-.08.08-.15.12-.23.09-.18.19-.35.3-.52.21-.34.7-.51,1.12-.67.44-.16.88-.26,1.35-.32.19-.02.41-.04.63-.04.08,0,.15,0,.23,0,2.14.3,2.8,1.29,4.03,3.09.27.4,1.17,2.52,1.21,2.7l.15.66c.04.19.08.41.12.66.02.11.03.22.05.33.02.15.04.31.07.46.08.54.21,1.09.3,1.49.1.41.18.68.18.68,0,0,0,0,0,0,.12.56.27,1.14.44,1.77.25.97.54,2,.87,3,.01.03.56,1.63,1.21,3.33h0c.64,1.67,1.39,3.45,1.82,3.94.28.32.69.7,1.16,1.14.75.7,1.59,1.48,2.14,2.23.91,1.25,5.46,6.81,6.75,7.9.41.35.79.7,1.16,1.04.72.67,1.41,1.3,2.13,1.7.93.52,1.89,1.33,2.9,2.19l.19.16c.98.83,1.56,1.85,2.07,2.76l.07.12c.23.41.42.72.56.94-.08,0-.17-.02-.24-.05-.07-.02-.13-.02-.2,0-.59.15-.94-.24-1.4-.86-.08-.1-.15-.2-.22-.28-.47-.57-1.13-1.16-1.16-1.19-.14-.12-.35-.13-.5,0-.14.12-.17.33-.07.49.05.08.4.68.71,1.23-.25-.08-.55-.39-.99-.92-.22-.26-.44-.53-.67-.73Zm-16.2-6.45s-.12-.01-.33-.02c-.1,0-.23-.01-.38-.01-.14,0-.31,0-.49,0-.18,0-.37,0-.57.02-.2.01-.42.03-.64.05-.22.02-.45.05-.67.08-.23.04-.46.07-.69.12-.11.02-.23.05-.34.08-.11.03-.23.05-.34.09-.11.03-.22.06-.33.09-.11.03-.22.07-.32.1-.05.02-.1.03-.16.05-.05.02-.1.04-.15.05-.1.03-.2.07-.29.11-.19.07-.37.15-.53.22-.08.04-.16.07-.23.11-.07.03-.15.06-.21.1-.13.07-.25.11-.34.16-.19.1-.3.15-.3.15,0,0,.09-.08.26-.21.08-.07.19-.14.31-.23.12-.09.26-.17.42-.27.08-.05.16-.09.25-.14.08-.05.18-.09.27-.14.09-.05.19-.09.29-.14.1-.05.2-.09.31-.13.11-.04.21-.08.33-.12.06-.02.11-.04.17-.06.06-.02.11-.03.17-.05.11-.04.23-.07.35-.1.12-.03.24-.06.36-.08.12-.03.24-.04.36-.07.12-.02.24-.03.36-.05.12-.01.24-.03.35-.03.12,0,.23-.02.35-.02.23,0,.45,0,.66,0,.21,0,.41.03.59.05.36.04.66.11.86.16.1.03.18.05.24.07.05.02.08.03.08.03Zm-.96-.47c.39-.72,1.1-2.16,1.81-4.1l.11.1c1.64,1.49,4.7,4.26,6.65,5.24l.82.4c.44.22.89.44,1.25.63-1.39-.5-2.69-.87-3.87-1.12-3.81-.79-5.86-1.06-6.77-1.16Zm14.35,11.78h0s0,0,0,0h0Zm-22.03-.18c2.01.81,6.35.67,8.74.62,2.39-.05,6.49-.33,10.03,0s5.54,2.34,5.54,2.34c-2.1-1.24-3.39-1.48-6.02-1.72-2.63-.24-10.7-.19-13.37-.19s-4.92-1.05-4.92-1.05Zm-2.93-20.46c.67-1.15,1.09-2.02,1.28-2.64.2-.65.23-1.49.17-2.38.7.08,1.87.17,3.33.17.25,0,.51,0,.78-.01.72,1.56,1.39,2.94,1.78,3.55.7,1.11,1.71,2.44,2.71,3.61-2.85-.32-7.15-.99-10.05-2.31Zm-9.11,22.5s.02-.09.01-.13c-.05-.88.84-1.15,1.38-1.23l.11-.02c.1-.02.29-.08.35-.17.21-.3.89-.76,1.9-.79.27,0,.56.04.81.08l.31.06c.87.16,1.85.35,2.44-.38.14-.17.28-.32.43-.44.02-.02.04-.03.06-.04,1.26.61,2.63,1.04,3.85,1.34-.18.88-.16,2.2-.13,2.93-.66-.06-1.98-.17-3.29-.21-.72-.02-1.64-.04-2.55-.06-1.36-.02-2.76-.05-3.25-.1-.28-.03-.58-.04-.89-.04-.53,0-1.13-.02-1.38-.2-.28-.21-.19-.54-.18-.58Z"/></svg>